# xmcd
#
# Track frame offsets: 
#        150
#        15574
#        32444
#        45427
#        61866
#        80937
#        101242
#        128662
#        149793
#        165898
#        181549
#        196791
#        214303
#        233988
#        262920
#        279706
#        292581
#        321423
#        336933
#
# Disc length: 4731 seconds
#
# Revision: 0
# Processed by: cddbd v1.5.2PL0 Copyright (c) Steve Scherf et al.
# Submitted via: ExactAudioCopy v1.0b3
#
DISCID=0c127913
DTITLE=Various Artist - Club Base Vol. 08 - CD 2
DYEAR=1900
DGENRE=
TTITLE0=The Horrorist - One Night In NYC (Radio Edit)
TTITLE1=Beam Vs. Cyrus - Take This Sound (Out Of My Head) (Radio Remix
TTITLE1=)
TTITLE2=Elektrochemie LK - When I Rock (Radio Edit)
TTITLE3=Off-Cast-Project - Into The Light (Sasha De Vries Vs. Mario Lo
TTITLE3=pez Radio Edit)
TTITLE4=M.O.D. - Bee-Troo (Single Edit)
TTITLE5=Galore - I Call You
TTITLE6=Alex M.O.R.P.H. - Supernova (Remix)
TTITLE7=Nicky Davis - To Munich
TTITLE8=Jericho - Dream Simulation
TTITLE9=Des Mitchell - The World Is Yours (Radio Mix)
TTITLE10=Prism X - The Isle Of Sky
TTITLE11=HH-22047 - Enjoy This Trip (Green Court Edit)
TTITLE12=Fire and Ice - Lost Emotions 2001
TTITLE13=T.L. Project - Night Hell
TTITLE14=Monsta - The Time Of My Life
TTITLE15=Porn Kings - Sledger (Radio Edit)
TTITLE16=Astroline - Close My Eyes
TTITLE17=DJ Valium - Doin' It Again (Radio Version)
TTITLE18=Gigi D'Agostino and Albertino - Super (Riscaldamento)
EXTD=
EXTT0=
EXTT1=
EXTT2=
EXTT3=
EXTT4=
EXTT5=
EXTT6=
EXTT7=
EXTT8=
EXTT9=
EXTT10=
EXTT11=
EXTT12=
EXTT13=
EXTT14=
EXTT15=
EXTT16=
EXTT17=
EXTT18=
PLAYORDER=
